<svg xmlns="http://www.w3.org/2000/svg" width="22" height="22" viewBox="0 0 22 22"><defs><clipPath id="p78va"><path fill="#fff" d="M11.937.365l9.394 9.43a1.367 1.367 0 0 1 .466.486 1.375 1.375 0 0 1-.499 1.918l-9.36 9.397a1.36 1.36 0 0 1-1.927 0 1.367 1.367 0 0 1 0-1.93l7.263-7.292h-15.9a1.375 1.375 0 0 1 0-2.75h15.938l-7.301-7.33a1.366 1.366 0 0 1 0-1.929 1.36 1.36 0 0 1 1.926 0z"/></clipPath></defs><g><g><path fill="none" stroke="#fff" stroke-miterlimit="20" stroke-width="6" d="M11.937.365l9.394 9.43a1.367 1.367 0 0 1 .466.486 1.375 1.375 0 0 1-.499 1.918l-9.36 9.397a1.36 1.36 0 0 1-1.927 0 1.367 1.367 0 0 1 0-1.93l7.263-7.292h-15.9a1.375 1.375 0 0 1 0-2.75h15.938l-7.301-7.33a1.366 1.366 0 0 1 0-1.929 1.36 1.36 0 0 1 1.926 0z" clip-path="url(&quot;#p78va&quot;)"/></g></g></svg>